<svg width="512" height="512" xmlns="http://www.w3.org/2000/svg">

 <g>
  <title>background</title>
  <rect fill="none" id="canvas_background" height="402" width="582" y="-1" x="-1"/>
 </g>
 <g>
  <title>Layer 1</title>
  <path fill="#ffffff" id="svg_2" d="m425.5,135.4c4.7,-5.9 7.5,-13.5 7.5,-21.6c0,-19.2 -15.6,-34.8 -34.8,-34.8c-8.2,0 -15.7,2.8 -21.6,7.5c-34,-24.2 -75.7,-38.5 -120.6,-38.5c-114.9,0 -208,93.1 -208,208c0,114.9 93.1,208 208,208c114.9,0 208,-93.1 208,-208c0,-44.9 -14.3,-86.6 -38.5,-120.6zm-33.7,256.4c-17.6,17.6 -38.2,31.5 -61.1,41.2c-23.7,10 -48.8,15.1 -74.8,15.1c-25.9,0 -51.1,-5.1 -74.8,-15.1c-22.9,-9.7 -43.4,-23.5 -61.1,-41.2c-17.6,-17.6 -31.5,-38.2 -41.2,-61.1c-10,-23.7 -15.1,-48.8 -15.1,-74.8c0,-25.9 5.1,-51.1 15.1,-74.8c9.7,-22.9 23.5,-43.4 41.2,-61.1s38.2,-31.5 61.1,-41.2c23.7,-10 48.8,-15.1 74.8,-15.1c25.9,0 51.1,5.1 74.8,15.1c12.7,5.4 24.7,12.1 35.9,20c-2.1,4.5 -3.3,9.5 -3.3,14.9c0,19.2 15.6,34.8 34.8,34.8c5.3,0 10.3,-1.2 14.9,-3.3c7.9,11.2 14.6,23.2 20,35.9c10,23.7 15.1,48.8 15.1,74.8c0,25.9 -5.1,51.1 -15.1,74.8c-9.7,22.9 -23.5,43.5 -41.2,61.1z"/>
  <circle fill="#ffffff" id="svg_3" r="96.1" cy="256" cx="256"/>
 </g>
</svg>